<?xml version="1.0" encoding="UTF-8"?>
<svg width="100px" height="100px" viewBox="0 0 102 100" version="1.1" xmlns="http://www.w3.org/2000/svg" xmlns:xlink="http://www.w3.org/1999/xlink">
    <title>noun-configure-1624009</title>
    <defs>
        <linearGradient x1="95.9979373%" y1="23.8859741%" x2="5.16015591%" y2="82.80581%" id="linearGradient-1">
            <stop stop-color="#F3CA44" offset="0%"></stop>
            <stop stop-color="#FAF089" offset="100%"></stop>
        </linearGradient>
        <linearGradient x1="95.9979373%" y1="48.0736164%" x2="5.16015591%" y2="52.4200242%" id="linearGradient-2">
            <stop stop-color="#F3CA44" offset="0%"></stop>
            <stop stop-color="#FAF089" offset="100%"></stop>
        </linearGradient>
        <linearGradient x1="95.9979373%" y1="10.2317207%" x2="5.16015591%" y2="99.9589998%" id="linearGradient-3">
            <stop stop-color="#F3CA44" offset="0%"></stop>
            <stop stop-color="#FAF089" offset="100%"></stop>
        </linearGradient>
        <linearGradient x1="95.9979373%" y1="10.2052751%" x2="5.16015591%" y2="99.9922221%" id="linearGradient-4">
            <stop stop-color="#F3CA44" offset="0%"></stop>
            <stop stop-color="#FAF089" offset="100%"></stop>
        </linearGradient>
        <linearGradient x1="95.9979373%" y1="10.2940205%" x2="5.16015591%" y2="99.8807356%" id="linearGradient-5">
            <stop stop-color="#F3CA44" offset="0%"></stop>
            <stop stop-color="#FAF089" offset="100%"></stop>
        </linearGradient>
        <linearGradient x1="95.9325461%" y1="10.1990838%" x2="5.22390076%" y2="100%" id="linearGradient-6">
            <stop stop-color="#F3CA44" offset="0%"></stop>
            <stop stop-color="#FAF089" offset="100%"></stop>
        </linearGradient>
        <linearGradient x1="95.9960268%" y1="10.1990838%" x2="5.16201824%" y2="100%" id="linearGradient-7">
            <stop stop-color="#F3CA44" offset="0%"></stop>
            <stop stop-color="#FAF089" offset="100%"></stop>
        </linearGradient>
        <linearGradient x1="95.9892278%" y1="10.1990838%" x2="5.16864609%" y2="100%" id="linearGradient-8">
            <stop stop-color="#F3CA44" offset="0%"></stop>
            <stop stop-color="#FAF089" offset="100%"></stop>
        </linearGradient>
    </defs>
    <g id="Page-1" stroke="none" stroke-width="1" fill="none" fill-rule="evenodd">
        <g id="Basha" transform="translate(-465.000000, -878.000000)" fill-rule="nonzero">
            <g id="Process" transform="translate(29.000000, 852.000000)">
                <g id="Step-2" transform="translate(341.333333, 0.000000)">
                    <g id="noun-configure-1624009" transform="translate(94.901087, 26.000000)">
                        <path d="M95.1439394,100 L5.86868687,100 C2.63333333,100 0.00151515151,97.3681818 0.00151515151,94.1328283 L0.00151515151,20.2010101 C0.00151515151,19.0843687 0.906060606,18.1808081 2.02171717,18.1808081 L98.9914141,18.1808081 C100.107071,18.1808081 101.011616,19.0843687 101.011616,20.2010101 L101.011616,94.1328283 C101.011616,97.3681818 98.379798,100 95.1444444,100 L95.1439394,100 Z M4.04040404,22.2222222 L4.04040404,94.1338384 C4.04040404,95.1419697 4.86012626,95.9607071 5.86727273,95.9607071 L95.1425253,95.9607071 C96.1496717,95.9607071 96.9693939,95.1419697 96.9693939,94.1338384 L96.9693939,22.2222222 L4.04040404,22.2222222 Z" id="Shape" fill="url(#linearGradient-1)"></path>
                        <path d="M98.989899,22.2222222 L2.02020202,22.2222222 C0.904545455,22.2222222 0,21.3186616 0,20.2020202 L0,5.86717172 C0,2.63181818 2.63181818,0 5.86717172,0 L95.1424242,0 C98.3777778,0 101.009596,2.63181818 101.009596,5.86717172 L101.009596,20.2020202 C101.009596,21.3186616 100.105051,22.2222222 98.9893939,22.2222222 L98.989899,22.2222222 Z M4.04040404,18.1818182 L96.969697,18.1818182 L96.969697,5.86717172 C96.969697,4.8590404 96.1499747,4.04030303 95.1428283,4.04030303 L5.86757576,4.04030303 C4.86042929,4.04030303 4.04040404,4.8590404 4.04040404,5.86717172 L4.04040404,18.1818182 Z" id="Shape" fill="url(#linearGradient-2)"></path>
                        <path d="M17.3080808,13.1338384 C16.7625758,13.1338384 16.2575253,12.9306338 15.8738131,12.547904 C15.6923106,12.3446995 15.5305303,12.1237374 15.4289394,11.8810859 C15.3283232,11.6384242 15.2878813,11.3760354 15.2878813,11.1136364 C15.2878813,10.8512374 15.3283258,10.5888636 15.4289394,10.3461869 C15.5305404,10.0837879 15.6923232,9.86085859 15.8738131,9.67936869 C16.3384091,9.21376263 17.0456818,8.99280303 17.6917929,9.13287879 C17.832851,9.1545803 17.9541919,9.19403788 18.0755051,9.23349495 C18.1968359,9.29465404 18.3181667,9.35581313 18.4187879,9.43669949 C18.5401187,9.49785859 18.6417197,9.57874495 18.7423232,9.67936111 C18.9238258,9.86086364 19.0658586,10.0838056 19.1664899,10.3461793 C19.2680909,10.5888409 19.3282626,10.8512298 19.3282626,11.1136288 C19.3282626,11.6384015 19.1063157,12.1631742 18.7423283,12.5478965 C18.5401111,12.729399 18.3181616,12.8714318 18.0755101,12.9720631 C17.8328485,13.0726793 17.5704596,13.1338384 17.3080606,13.1338384 L17.3080808,13.1338384 Z" id="Path" fill="#F3DC44"></path>
                        <path d="M27.8535354,13.1338384 C27.5704293,13.1338384 27.3080303,13.0726793 27.0653788,12.9720657 C26.8227172,12.8714495 26.6007828,12.729404 26.4182828,12.547899 C26.2367803,12.3446944 26.075,12.1237323 25.9743939,11.8810808 C25.8737879,11.6384293 25.8333359,11.3760303 25.8333359,11.1136313 C25.8333359,10.8512323 25.8737803,10.5888586 25.9743939,10.3461818 C26.0750101,10.0837828 26.2367929,9.86085354 26.4182828,9.67936364 C26.6007727,9.49786111 26.8227273,9.35582828 27.0653788,9.23350505 C27.8130808,8.93166162 28.7018687,9.11316162 29.267096,9.67936364 C29.4693131,9.86086616 29.6103788,10.0838081 29.7119697,10.3461818 C29.8125859,10.5888434 29.8737424,10.8512323 29.8737424,11.1136313 C29.8737424,11.638404 29.6508106,12.1631768 29.267101,12.547899 C29.0855985,12.7294015 28.8636414,12.8714343 28.6209899,12.9720657 C28.3783283,13.0726818 28.1159394,13.1338384 27.8535404,13.1338384 L27.8535354,13.1338384 Z" id="Path" fill="#F3DC44"></path>
                        <path d="M38.3787879,13.1338384 C38.115404,13.1338384 37.8530303,13.0726793 37.6103535,12.9720657 C37.3686793,12.8714495 37.1457576,12.729404 36.9642424,12.547899 C36.5805303,12.163202 36.3585859,11.638404 36.3585859,11.1136313 C36.3585859,10.8512323 36.4187576,10.5888586 36.5193737,10.3461818 C36.6209747,10.0837828 36.7620354,9.86085354 36.9642475,9.67936364 C37.14575,9.49786111 37.3686919,9.35582828 37.6103586,9.23350505 C38.3580606,8.93166162 39.2468485,9.11316162 39.8130606,9.67936364 C39.9945631,9.86086616 40.1563434,10.0838081 40.2569495,10.3461818 C40.3585505,10.5888434 40.3989949,10.8512323 40.3989949,11.1136313 C40.3989949,11.3760303 40.3585505,11.638404 40.2569495,11.8810808 C40.1563333,12.1237424 39.9945505,12.3446919 39.8130606,12.547899 C39.6305707,12.7294015 39.4086162,12.8714343 39.1659646,12.9720657 C38.9035657,13.0726818 38.6609141,13.1338384 38.3787929,13.1338384 L38.3787879,13.1338384 Z" id="Path" fill="#F3DC44"></path>
                        <path d="M68.5883838,59.9621212 L64.2353535,59.9621212 C63.4422727,59.9621212 62.7231566,59.4985101 62.3956566,58.7764394 L61.1192172,55.9630556 L58.2358838,57.0461616 C57.4931061,57.3203788 56.6595707,57.1428308 56.1002778,56.5864899 L53.0146717,53.5147727 C52.452399,52.9544697 52.2699242,52.1180051 52.5480808,51.3742172 L53.6311869,48.4759848 L50.8160354,47.1975758 C50.0949495,46.8700758 49.6313384,46.1519697 49.6313384,45.3588889 L49.6313384,41.0048485 C49.6313384,40.2117677 50.0949495,39.4936364 50.8160354,39.1661616 L53.6294192,37.8877525 L52.5483081,35.0034091 C52.2701263,34.2616162 52.4516389,33.427096 53.0119192,32.8668182 L56.0975253,29.7812121 C56.6607828,29.2169697 57.4992424,29.0433586 58.2410354,29.3195707 L61.1213384,30.4105556 L62.3958081,27.6012121 C62.7233081,26.8791414 63.442399,26.4155303 64.2355051,26.4155303 L68.5885354,26.4155303 C69.3816162,26.4155303 70.1007323,26.8791414 70.4282323,27.6012121 L71.702702,30.4085354 L74.5819949,29.3195202 C75.322803,29.0433081 76.1622475,29.2169318 76.7255051,29.7811616 L79.8121212,32.8667677 C80.3724242,33.4270707 80.5539141,34.2615657 80.2757323,35.0033586 L79.1946212,37.887702 L82.0069949,39.1661111 C82.7280808,39.4936111 83.1916919,40.2117172 83.1916919,41.004798 L83.1916919,45.3588384 C83.1916919,46.1519192 82.7280808,46.8700505 82.0069949,47.1975253 L79.192601,48.4759343 L80.2757071,51.3741667 C80.5538889,52.1179293 80.3713914,52.9544192 79.8091162,53.5147222 L76.7225,56.5864394 C76.1602273,57.1427778 75.327702,57.3203283 74.5868939,57.0461111 L71.7045707,55.9630051 L70.4281313,58.7763889 C70.1006313,59.4984596 69.3815404,59.9621212 68.5884343,59.9621212 L68.5883838,59.9621212 Z M65.5373737,55.9217172 L67.2863131,55.9217172 L68.8063889,52.5737374 C69.2473232,51.6030808 70.3619949,51.1473737 71.3563889,51.5162879 L74.7919949,52.8065404 L76.034899,51.5695707 L74.747601,48.1248737 C74.3757071,47.1285859 74.8373662,46.0158838 75.8040657,45.577904 L79.1510354,44.0568434 L79.1510354,42.3069192 L75.8040657,40.7858586 C74.8363889,40.3478788 74.3747222,39.2332323 74.747601,38.2388889 L76.034899,34.8040404 L74.7919949,33.5611364 L71.3611869,34.8592677 C70.3678535,35.2360859 69.2482576,34.7744343 68.8063889,33.8037879 L67.2863131,30.4558081 L65.5373737,30.4558081 L64.017298,33.8037879 C63.5773485,34.7744444 62.4567677,35.2341162 61.4625,34.8592677 L58.0316919,33.5611364 L56.7887879,34.8040404 L58.0760859,38.2388889 C58.4489646,39.2332071 57.9873081,40.3478788 57.0196212,40.7858586 L53.6716414,42.3069192 L53.6716414,44.0568434 L57.0196212,45.577904 C57.9863131,46.0158838 58.4479545,47.1285606 58.0760859,48.1248737 L56.7887879,51.5695707 L58.0307071,52.8065404 L61.4673232,51.5162879 C62.464596,51.1473737 63.577298,51.6030934 64.0173232,52.5737374 L65.5373737,55.9217172 Z" id="Shape" fill="url(#linearGradient-3)"></path>
                        <path d="M66.4116162,49.6792929 C62.8318182,49.6792929 59.9189394,46.7674242 59.9189394,43.1866162 C59.9189394,39.6058081 62.8318182,36.6939394 66.4116162,36.6939394 C69.9924242,36.6939394 72.905303,39.6058081 72.905303,43.1866162 C72.905303,46.7674242 69.9924242,49.6792929 66.4116162,49.6792929 Z M66.4116162,40.7343434 C65.0592172,40.7343434 63.9593687,41.835202 63.9593687,43.1865909 C63.9593687,44.5380051 65.0592424,45.6388384 66.4116162,45.6388384 C67.7640152,45.6388384 68.8648485,44.5379798 68.8648485,43.1865909 C68.8648485,41.8351768 67.7639899,40.7343434 66.4116162,40.7343434 L66.4116162,40.7343434 Z" id="Shape" fill="url(#linearGradient-4)"></path>
                        <path d="M42.1540404,91.7651768 C41.6164394,91.7651768 41.089697,91.5501111 40.7030051,91.1496212 L37.6163889,87.9635101 L34.2239646,90.8183081 C33.6212626,91.3292677 32.774899,91.4358081 32.0646717,91.102399 L27.0606313,88.7527273 C26.3415152,88.4153788 25.8867929,87.6873737 25.8986111,86.8923232 L25.9666742,82.4456061 L21.5495025,82.0806313 C20.761346,82.0135556 20.0836692,81.494697 19.8153611,80.7509343 L17.9372045,75.5405808 C17.6679116,74.7928788 17.8622348,73.9544192 18.4353611,73.4019949 L21.6323308,70.3163889 L18.7775328,66.9269949 C18.2685429,66.3213384 18.159048,65.4749747 18.4973813,64.7608081 L20.8716995,59.7438889 C21.2060934,59.037601 21.9173056,58.587803 22.6975833,58.587803 L22.7370404,58.587803 L27.1640606,58.6746086 L27.5290354,54.2652652 C27.5941389,53.474154 28.1169394,52.7935227 28.8646667,52.5271843 L34.0740101,50.6726894 C34.8197424,50.4083207 35.6483535,50.5996944 36.1997677,51.1678662 L39.2952222,54.3481692 L42.677798,51.4835227 C43.2854242,50.9685985 44.1317879,50.856149 44.8489343,51.1994318 L49.8648434,53.5747348 C50.5809798,53.9140783 51.0337576,54.6420581 51.0199444,55.4351389 L50.9430025,59.856351 L55.3720429,60.2311995 C56.1621692,60.296303 56.839846,60.8191035 57.1061843,61.5668308 L58.9596692,66.7771843 C59.2250227,67.5229167 59.0297045,68.3554672 58.4605278,68.9058965 L55.2703763,71.9935227 L58.1299722,75.3985732 C58.6389621,76.0042298 58.7474722,76.8505934 58.408154,77.5647601 L56.0338359,82.5677904 C55.6944924,83.2839268 54.9901995,83.8087247 54.1744167,83.7219066 L49.7501742,83.6449646 L49.3772955,88.0621364 C49.3102197,88.8532475 48.7874217,89.5299394 48.0406793,89.7962778 L42.8303258,91.6487778 C42.6093662,91.7276919 42.3805278,91.7651768 42.1536338,91.7651768 L42.1540404,91.7651768 Z M37.7555556,83.1833333 C38.2852778,83.1833333 38.8130051,83.3904823 39.2075758,83.7988636 L42.7015152,87.407197 L45.4606061,86.4247222 L45.8837879,81.4234596 C45.9725657,80.3758838 46.8494949,79.5729293 47.8961111,79.5729293 L47.9316237,79.5729293 L52.9427348,79.6597348 L54.2024066,77.0041793 L50.9660429,73.151149 C50.2834419,72.3383207 50.3455884,71.1368561 51.1080884,70.3991288 L54.7174318,66.9051894 L53.7359419,64.1471086 L48.7210429,63.7229419 C47.6616237,63.6341641 46.8527601,62.7384975 46.8705126,61.6751136 L46.9573182,56.6680429 L44.2959545,55.4073864 L40.4686818,58.6488005 C39.6558535,59.3353662 38.4543889,59.2781439 37.7146414,58.5166187 L34.2088333,54.9140934 L31.4487323,55.8965682 L31.0354242,60.8958106 C30.9466465,61.9571995 30.0065859,62.760154 28.9826717,62.7503056 L23.9657525,62.6536364 L22.705096,65.3170202 L25.9396919,69.1561616 C26.6232778,69.9689899 26.5611313,71.1743939 25.7966591,71.9122222 L22.1825177,75.400101 L23.1768359,78.160202 L28.1828965,78.5725253 C29.2423157,78.661303 30.0521641,79.555 30.0363813,80.6183838 L29.9594394,85.6491919 L32.6119646,86.8940657 L36.4561566,83.6587121 C36.8339596,83.3410859 37.295601,83.1832576 37.7562576,83.1832576 L37.7555556,83.1833333 Z" id="Shape" fill="url(#linearGradient-5)"></path>
                        <path d="M38.4494949,78.8687121 C37.3230051,78.8687121 36.2014394,78.6181338 35.1537879,78.1209848 C33.2933838,77.2391162 31.8876263,75.6845202 31.1962121,73.7452273 C29.7688636,69.742197 31.8640152,65.3250253 35.8659091,63.8987626 C37.8042424,63.2003788 39.8984848,63.3108586 41.7568182,64.1927273 C43.6172222,65.074596 45.0229798,66.6291919 45.7133838,68.5684848 C47.1417172,72.5694949 45.0475505,76.9866667 41.044697,78.4149495 C40.1983333,78.7187626 39.322399,78.8687121 38.4494949,78.8687121 L38.4494949,78.8687121 Z M35.0020202,72.3878788 C35.3314899,73.3111616 36.0002778,74.0509848 36.885101,74.4692424 C37.7699242,74.8894697 38.7662121,74.9368182 39.6876263,74.6112879 C41.5914394,73.9306566 42.5876263,71.8294697 41.9080808,69.9256818 C41.5786111,69.002399 40.9108081,68.2625758 40.0259848,67.8443182 C39.1411616,67.4240909 38.1448737,67.3767424 37.2234596,67.7022727 C35.3196465,68.382904 34.3234596,70.4840909 35.0020202,72.3878788 Z" id="Shape" fill="url(#linearGradient-6)"></path>
                        <path d="M27.1590909,49.9344005 C26.3738889,49.9344005 25.654798,49.4766414 25.3243434,48.7585354 L21.7771212,41.0388384 L14.0594444,37.4916162 C13.3058081,37.1463636 12.8402273,36.3749747 12.8856061,35.5463889 C12.9309823,34.7197727 13.4764646,34.0036111 14.2636364,33.7412374 L32.6633838,27.5998232 C33.3844697,27.3532172 34.1893939,27.5445833 34.7309343,28.0871212 C35.2724747,28.6276768 35.4608838,29.4286616 35.2192172,30.1546717 L29.0767929,48.5534091 C28.8134091,49.3405808 28.0972727,49.8870455 27.2696717,49.9304545 C27.2331742,49.9344005 27.1966768,49.9344005 27.1591919,49.9344005 L27.1590909,49.9344005 Z M20.3901515,35.954798 L24.1434343,37.6810354 C24.582399,37.8822677 24.9345455,38.2334343 25.1357828,38.6714141 L26.8620202,42.4277273 L30.1054545,32.7113131 L20.3901515,35.954798 Z" id="Shape" fill="url(#linearGradient-7)"></path>
                        <path d="M16.040404,48.7979798 C15.5235101,48.7979798 15.0066162,48.6006944 14.6120707,48.2061111 C13.8229293,47.4169697 13.8229293,46.1385606 14.6120707,45.3495455 L21.8731818,38.0874242 C22.6623232,37.2982828 23.9407323,37.2982828 24.7297475,38.0874242 C25.5187626,38.8765657 25.5188889,40.1549747 24.7297475,40.9439899 L17.4686364,48.2061111 C17.0740657,48.6006818 16.5571717,48.7979798 16.040303,48.7979798 L16.040404,48.7979798 Z" id="Path" fill="url(#linearGradient-8)"></path>
                    </g>
                </g>
            </g>
        </g>
    </g>
</svg>