<?xml version="1.0" encoding="UTF-8"?>
<svg width="100px" height="100px" viewBox="0 0 95 111" version="1.1" xmlns="http://www.w3.org/2000/svg" xmlns:xlink="http://www.w3.org/1999/xlink">
    <title>noun-learn-2277971</title>
    <defs>
        <linearGradient x1="16.0301754%" y1="57.0962094%" x2="142.455552%" y2="40.1234568%" id="linearGradient-1">
            <stop stop-color="#2DC3DD" offset="0%"></stop>
            <stop stop-color="#FFFC72" offset="100%"></stop>
            <stop stop-color="#80BF1B" offset="100%"></stop>
        </linearGradient>
        <linearGradient x1="16.0301754%" y1="56.5983886%" x2="182.323807%" y2="26.3147399%" id="linearGradient-2">
            <stop stop-color="#2DC3DD" offset="0%"></stop>
            <stop stop-color="#FFFC72" offset="100%"></stop>
            <stop stop-color="#80BF1B" offset="100%"></stop>
        </linearGradient>
        <linearGradient x1="16.0301754%" y1="56.5983886%" x2="142.455552%" y2="40.8163265%" id="linearGradient-3">
            <stop stop-color="#2DC3DD" offset="0%"></stop>
            <stop stop-color="#FFFC72" offset="100%"></stop>
            <stop stop-color="#80BF1B" offset="100%"></stop>
        </linearGradient>
        <linearGradient x1="16.0301754%" y1="52.6720747%" x2="179.156725%" y2="40.3014249%" id="linearGradient-4">
            <stop stop-color="#2DC3DD" offset="0%"></stop>
            <stop stop-color="#FFFC72" offset="100%"></stop>
            <stop stop-color="#80BF1B" offset="100%"></stop>
        </linearGradient>
        <linearGradient x1="46.9427158%" y1="85.9245601%" x2="65.4582102%" y2="-48.0032878%" id="linearGradient-5">
            <stop stop-color="#2DC3DD" offset="0%"></stop>
            <stop stop-color="#FFFC72" offset="100%"></stop>
            <stop stop-color="#80BF1B" offset="100%"></stop>
        </linearGradient>
        <linearGradient x1="46.9427158%" y1="85.9245601%" x2="61.8599144%" y2="-44.653146%" id="linearGradient-6">
            <stop stop-color="#2DC3DD" offset="0%"></stop>
            <stop stop-color="#FFFC72" offset="100%"></stop>
            <stop stop-color="#80BF1B" offset="100%"></stop>
        </linearGradient>
        <linearGradient x1="25.1174688%" y1="85.9245601%" x2="134.283308%" y2="-35.1781898%" id="linearGradient-7">
            <stop stop-color="#2DC3DD" offset="0%"></stop>
            <stop stop-color="#FFFC72" offset="100%"></stop>
            <stop stop-color="#80BF1B" offset="100%"></stop>
        </linearGradient>
    </defs>
    <g id="Page-1" stroke="none" stroke-width="1" fill="none" fill-rule="evenodd">
        <g id="Basha" transform="translate(-1148.000000, -871.000000)" fill-rule="nonzero">
            <g id="Process" transform="translate(29.000000, 852.000000)">
                <g id="Step-4" transform="translate(54.000000, 0.000000)">
                    <g id="noun-learn-2277971" transform="translate(1065.000000, 19.000000)">
                        <path d="M49.7079951,37.5686105 C50.8840282,37.0836758 52.6028459,36.3562738 51.7885657,34.9013774 C51.3362453,34.093153 50.2506762,33.7698632 49.3461388,34.1739754 L48.1701056,34.7397325 C47.7177852,34.9013774 47.2654648,34.9013774 46.8131443,34.7397325 L45.6371112,34.1739754 C44.7324704,33.7698632 43.6469013,34.093153 43.1946843,34.9013774 C42.7424672,35.7096019 43.1042202,36.6794712 44.0088611,37.0834911 C45.8181428,37.8108931 47.717992,38.4574727 49.7079951,37.5684258 L49.7079951,37.5686105 Z" id="Path" fill="url(#linearGradient-1)"></path>
                        <path d="M45,26.5 C45,25.675 44.2125,25 43.25,25 L39.75,25 C38.7875,25 38,25.675 38,26.5 C38,27.325 38.7875,28 39.75,28 L43.25,28 C44.2125,28 45,27.325 45,26.5 Z" id="Path" fill="url(#linearGradient-2)"></path>
                        <path d="M52.75,28 L56.25,28 C57.2125,28 58,27.325 58,26.5 C58,25.675 57.2125,25 56.25,25 L52.75,25 C51.7875,25 51,25.675 51,26.5 C51,27.325 51.7875,28 52.75,28 Z" id="Path" fill="url(#linearGradient-3)"></path>
                        <path d="M51.3076923,58 L43.6923077,58 C42.7615385,58 42,58.675 42,59.5 C42,60.325 42.7615385,61 43.6923077,61 L51.3076923,61 C52.2384615,61 53,60.325 53,59.5 C53,58.675 52.2384615,58 51.3076923,58 Z" id="Path" fill="url(#linearGradient-4)"></path>
                        <path d="M24.5,84 C25.325,84 26,83.25 26,82.3333333 L26,75.6666667 C26,74.75 25.325,74 24.5,74 C23.675,74 23,74.75 23,75.6666667 L23,82.3333333 C23,83.25 23.675,84 24.5,84 Z" id="Path" fill="url(#linearGradient-5)"></path>
                        <path d="M70.5,74 C69.675,74 69,74.75 69,75.6666667 L69,82.3333333 C69,83.25 69.675,84 70.5,84 C71.325,84 72,83.25 72,82.3333333 L72,75.6666667 C72,74.75 71.325,74 70.5,74 Z" id="Path" fill="url(#linearGradient-6)"></path>
                        <path d="M93.0827726,58.7200373 C93.0827726,57.7659497 92.2984116,56.9853325 91.3397481,56.9853325 L90.9911432,56.9853325 L86.1106745,58.0261554 C85.936372,57.8526849 64.5848195,51.5211116 64.5848195,51.5211116 L59.9657048,47.2709857 C59.4427975,46.8373095 58.7455877,46.6638391 58.1355291,46.9240448 L57.6126217,47.1842505 C56.6539582,45.9699572 56.0438996,44.4087229 56.0438996,42.8474886 L56.0438996,42.7607533 C61.3602241,39.7251191 64.6717715,34.0872294 64.8462731,28.0157627 C66.4149952,26.7147341 67.5478616,24.8932941 67.9837173,22.8984827 C68.6809271,20.0361207 68.9423808,14.2249588 62.6673929,6.93919872 C51.8606408,-5.37720522 41.9263969,1.90855486 38.1774001,4.59744639 C37.741644,4.94438735 37.3930391,5.20459307 37.1315854,5.37806354 C36.6086781,5.55153402 36.0857707,5.55153402 35.5628633,5.55153402 C32.2511167,5.63826926 28.5907652,6.33215117 27.0220431,13.878117 C24.7561112,24.4598161 28.9393701,29.49046 30.1594873,30.6181172 C31.0309995,35.7353972 34.1684437,40.1589935 38.7003075,42.7610507 L38.7003075,42.8477859 C38.6131563,44.4090202 38.0902489,45.9702545 37.1315854,47.1845479 L36.6086781,46.9243422 C35.9986195,46.6641364 35.3014097,46.8376069 34.7785023,47.2712831 L30.1593877,51.521409 C30.1593877,51.521409 8.98213758,57.7663462 8.89448834,57.8531805 L4.71122946,56.9858281 C3.75256596,56.8123577 2.88105369,57.4195043 2.61960001,58.2868567 L2.61960001,58.6337977 L2.61960001,71.1236721 C2.27099511,71.2104073 2.00954143,71.3838778 1.74808775,71.6440835 C0.615121797,72.5114359 0.00506320987,73.8991998 0.00506320987,75.2869636 L0.00506320987,83.2666056 C-0.0820880169,85.0013104 0.963726704,86.6491808 2.53254839,87.3430627 L2.61969961,87.3430627 L2.61969961,95.1492342 C2.61969961,95.9298513 3.14260698,96.536998 3.83981679,96.7972037 L47.4154302,110.934949 C47.7640351,111.021684 48.11264,111.021684 48.4612449,110.934949 L92.0368583,96.7972037 C92.7340681,96.536998 93.2569755,95.9298513 93.2569755,95.1492342 L93.2569755,86.9094856 C94.3899414,86.0421332 95,84.6543694 95,83.2666056 L95,75.2869636 C94.8256975,73.8991998 94.215639,72.5114359 93.082673,71.6440835 L93.0827726,58.7200373 Z M32.513168,20.8158457 C32.513168,20.9025809 33.297529,22.9843258 31.3802021,26.4537354 C30.3343873,24.458924 29.2013218,20.6425735 30.4215386,14.5709085 C31.5545045,9.0198532 33.4717319,9.0198532 35.6506122,8.93301883 C36.7835781,9.01975407 37.9165441,8.75954835 38.9623588,8.23913692 C39.3109637,7.9789312 39.7467198,7.71872549 40.2696272,7.37178453 C42.4485075,5.81055023 45.6730033,3.46859965 49.5947089,3.46859965 C52.6449022,3.46859965 56.1309513,4.94309871 59.8785536,9.27976154 C65.1948781,15.4378644 65.0203764,19.9480968 64.4976682,22.1165769 C64.2362146,23.0706645 63.8876096,23.9380169 63.2775511,24.7186341 C62.7546437,23.3308703 62.5803412,21.8562721 62.7546437,20.295236 C62.8417949,19.3411484 62.1445851,18.473796 61.1859216,18.3870608 L60.8373167,18.3870608 C59.3557459,18.5605312 57.874175,18.3870608 56.4797554,17.9533846 C54.2138235,17.1727674 52.2964965,15.5247979 51.0763793,13.3563178 C50.553472,12.4889654 49.5076572,12.2287597 48.7233958,12.7491711 C48.5490933,12.8359063 48.4619421,12.9226416 48.3747909,13.0093768 C47.7647323,13.6165235 47.0675225,14.2236702 46.2831614,14.6573464 C46.2831614,14.6573464 46.1960102,14.6573464 46.1960102,14.7440816 C44.8887418,15.611434 43.5814734,16.2185807 42.1000022,16.738893 C39.4854654,17.6062454 36.7836777,18.213392 33.9948385,18.3868625 C33.3847799,18.3868625 32.9490237,18.7338035 32.6004188,19.2542149 C32.3389652,19.6878911 32.2518139,20.2950378 32.5132676,20.8154492 L32.513168,20.8158457 Z M33.5589827,29.6628401 C35.9119663,26.1934305 36.347822,23.5047372 36.1735195,21.6831981 C38.6137539,21.4229924 40.9667374,20.8158457 43.2328685,20.0352286 C44.8887418,19.4280819 46.5446151,18.6474647 48.0260864,17.6934762 C48.3746913,17.4332705 48.8104474,17.1730648 49.1590523,16.9128591 C50.7277744,18.9076704 52.8194038,20.469103 55.2596382,21.3362571 C56.4797554,21.7699333 57.7871234,21.9434038 59.0942922,22.0301391 C59.0942922,23.9383143 59.7043508,25.8464896 60.7501655,27.49436 C60.9244679,27.6678305 61.0987704,27.9280362 61.2730728,28.1015067 C61.1859216,35.7342077 54.8238821,41.8923105 47.1545741,41.8056744 C40.2697268,41.5454687 34.430495,36.4280896 33.5589827,29.662741 L33.5589827,29.6628401 Z M54.2143215,48.4844861 C49.6824577,49.7855147 44.9762914,49.7855147 40.4444277,48.4844861 C41.2287887,47.1834575 41.7516961,45.7957928 42.0131497,44.3211946 C45.4991988,45.4487527 49.1595503,45.4487527 52.6455994,44.3211946 C52.9070531,45.7956937 53.4299604,47.1835566 54.2143215,48.4844861 Z M3.31800504,83.1785817 L3.31800504,75.1989397 C3.31800504,74.8519987 3.40515627,74.5050578 3.66660995,74.2448521 L9.85424745,75.8928216 C10.1157011,76.1530273 10.2900036,76.4999683 10.2028524,76.8469092 L10.2028524,85.4335988 C10.2028524,85.6070693 10.0285499,85.7805397 9.85424745,85.7805397 L9.76709622,85.7805397 C8.28552537,85.3468635 3.57945872,84.045835 3.57945872,84.045835 C3.40515627,83.8723645 3.31800504,83.5254235 3.31800504,83.1784826 L3.31800504,83.1785817 Z M46.0231022,106.857798 L5.93333866,93.8475117 L5.93333866,88.2964564 C7.32795749,88.6433974 8.89667957,89.4240145 10.3781508,89.4240145 C12.2954778,89.4240145 13.7769491,87.8627802 13.7769491,85.954605 L13.7769491,85.7811345 L13.7769491,76.9341401 C13.8641003,75.0259649 12.6439831,73.2912601 10.8138074,72.6840143 L5.93333866,71.3829857 L5.93333866,60.8012865 L46.0231022,69.1278695 L46.0231022,106.857798 Z M47.7661267,66.0059956 L15.7821245,59.3272831 L31.3820945,54.7302163 C31.6435482,54.6434811 31.9050018,54.5567458 32.0793043,54.3832753 L36.1753124,50.6537592 L36.6982197,50.9139649 C43.4089638,53.6894926 50.9910209,53.6894926 57.7898126,50.9139649 L58.31272,50.6537592 L62.408728,54.3832753 C62.5830305,54.5567458 62.8444842,54.7302163 63.1059378,54.7302163 L79.0545127,59.4139192 L47.7661267,66.0059956 Z M89.5987156,93.848503 L49.5091513,106.858789 L49.5091513,69.2147038 L89.5987156,60.8881209 L89.5987156,71.1228791 L83.8467346,72.6841134 C82.0165588,73.2912601 80.7965413,75.0258657 80.8835929,76.9342392 L80.8835929,85.7812336 C80.7964417,86.995527 81.4065003,88.1229859 82.3651637,88.8168679 C82.9752223,89.1638088 83.5852809,89.4240145 84.2824907,89.3372793 C84.8925493,89.3372793 85.4154567,89.2505441 85.938364,88.9903383 L89.5116639,87.9495155 L89.5116639,93.8475117 L89.5987156,93.848503 Z M91.3417401,83.1801677 C91.3417401,83.5271087 91.2545889,83.8740496 90.9931352,84.0475201 C90.9931352,84.0475201 86.6355739,85.2618134 84.9796009,85.7822249 C84.7181473,85.8689601 84.4566936,85.6954896 84.3695424,85.4352839 L84.3695424,85.2618134 L84.3695424,76.8483961 C84.3695424,76.5014552 84.4566936,76.1545142 84.7181473,75.8943085 L90.9057848,74.246339 C91.1672384,74.5065447 91.3415409,74.8534856 91.2543897,75.2004266 L91.2543897,83.1800686 L91.3417401,83.1801677 Z" id="Shape" fill="url(#linearGradient-7)"></path>
                    </g>
                </g>
            </g>
        </g>
    </g>
</svg>