<?xml version="1.0" encoding="UTF-8"?>
<svg width="100px" height="100px" viewBox="0 0 63 100" version="1.1" xmlns="http://www.w3.org/2000/svg" xmlns:xlink="http://www.w3.org/1999/xlink">
    <title>noun-record-1150552</title>
    <defs>
        <linearGradient x1="7.65774695%" y1="132.274327%" x2="86.6956086%" y2="0%" id="linearGradient-1">
            <stop stop-color="#2DC3DD" offset="0%"></stop>
            <stop stop-color="#FFFC72" offset="100%"></stop>
            <stop stop-color="#80BF1B" offset="100%"></stop>
        </linearGradient>
    </defs>
    <g id="Page-1" stroke="none" stroke-width="1" fill="none" fill-rule="evenodd">
        <g id="Basha" transform="translate(-821.000000, -877.000000)" fill="url(#linearGradient-1)" fill-rule="nonzero">
            <g id="Process" transform="translate(29.000000, 852.000000)">
                <g id="Step-3" transform="translate(682.666667, 0.000000)">
                    <g id="noun-record-1150552" transform="translate(109.333333, 25.000000)">
                        <path d="M59.8073554,46.8796015 C58.0435561,46.8796015 56.6147108,48.1113652 56.6147108,49.6318824 L56.6147108,53.2120102 C56.6147108,65.150422 45.3487801,74.8626317 31.5,74.8626317 C17.6512199,74.8626317 6.38528922,65.1506186 6.38528922,53.2120102 L6.38528922,38.8999526 C6.38528922,37.3794353 4.95644393,36.1476717 3.19264461,36.1476717 C1.42884529,36.1476717 0,37.3794353 0,38.8999526 L0,53.2120102 C0,67.2561135 12.4321581,78.8455754 28.3073554,80.2295795 L28.3073554,94.4954381 L20.2187903,94.4954381 C18.454991,94.4954381 17.0261457,95.7272018 17.0261457,97.247719 C17.0261457,98.7682363 18.454991,100 20.2187903,100 L42.7818939,100 C44.5456932,100 45.9745385,98.7682363 45.9745385,97.247719 C45.9745385,95.7272018 44.5456932,94.4954381 42.7818939,94.4954381 L34.6924166,94.4946702 L34.6924166,80.229598 C50.5673858,78.8457708 62.999772,67.2577047 62.999772,53.2120286 L62.999772,49.6319009 C62.999772,48.1113836 61.5709267,46.8796199 59.8071273,46.8796199 L59.8073554,46.8796015 Z M59.8073554,36.1476717 C58.0435561,36.1476717 56.6147108,37.3794353 56.6147108,38.8999526 L56.6147108,41.5584594 C56.6147108,43.0789767 58.0435561,44.3107404 59.8073554,44.3107404 C61.5711547,44.3107404 63,43.0789767 63,41.5584594 L63,38.8999526 C63,37.3802021 61.5711547,36.1476717 59.8073554,36.1476717 Z M31.5,71.742528 C43.2952255,71.742528 52.8909469,63.4703511 52.8909469,53.3020491 L52.8909469,18.440479 C52.8909469,8.272177 43.2952255,0 31.5,0 C19.7047745,0 10.1090531,8.272177 10.1090531,18.440479 L10.1090531,53.3020491 C10.1090531,63.4703511 19.7047745,71.742528 31.5,71.742528 Z M16.4943423,18.4406756 C16.4943423,11.3081395 23.2262615,5.5047585 31.5,5.5047585 C39.7737385,5.5047585 46.5056577,11.3081395 46.5056577,18.4406756 L46.5056577,19.7246539 L34.2677948,19.7246539 C32.5039955,19.7246539 31.0751502,20.9564176 31.0751502,22.4769349 C31.0751502,23.9974522 32.5039955,25.2292159 34.2677948,25.2292159 L46.5056577,25.2292159 L46.5056577,28.5321496 L34.2677948,28.5321496 C32.5039955,28.5321496 31.0751502,29.7639133 31.0751502,31.2844305 C31.0751502,32.8049478 32.5039955,34.0367115 34.2677948,34.0367115 L46.5056577,34.0367115 L46.5056577,37.3396452 L34.2677948,37.3396452 C32.5039955,37.3396452 31.0751502,38.5714089 31.0751502,40.0919262 C31.0751502,41.6124435 32.5039955,42.8442071 34.2677948,42.8442071 L46.5056577,42.8442071 L46.5056577,46.1471409 L34.2677948,46.1471409 C32.5039955,46.1471409 31.0751502,47.3789046 31.0751502,48.8994218 C31.0751502,50.4199391 32.5039955,51.6517028 34.2677948,51.6517028 L46.5056577,51.6517028 L46.5056577,53.3027568 C46.5056577,60.4352929 39.7737385,66.2386739 31.5,66.2386739 C23.2262615,66.2386739 16.4943423,60.4352929 16.4943423,53.3027568 L16.4943423,18.4406756 Z" id="Shape"></path>
                    </g>
                </g>
            </g>
        </g>
    </g>
</svg>