<?xml version="1.0" encoding="UTF-8"?>
<svg width="100px" height="100px" viewBox="0 0 100 100" version="1.1" xmlns="http://www.w3.org/2000/svg" xmlns:xlink="http://www.w3.org/1999/xlink">
    <title>noun-interpreter-3154938</title>
    <defs>
        <linearGradient x1="2.67368132%" y1="100%" x2="100%" y2="7.76028523%" id="linearGradient-1">
            <stop stop-color="#F8F5A7" offset="0%"></stop>
            <stop stop-color="#FF8732" offset="100%"></stop>
            <stop stop-color="#80BF1B" offset="100%"></stop>
        </linearGradient>
        <linearGradient x1="33.6241112%" y1="100%" x2="67.3010381%" y2="7.76028523%" id="linearGradient-2">
            <stop stop-color="#F8F5A7" offset="0%"></stop>
            <stop stop-color="#FF8732" offset="100%"></stop>
            <stop stop-color="#80BF1B" offset="100%"></stop>
        </linearGradient>
        <linearGradient x1="2.67368132%" y1="62.5%" x2="100%" y2="39.4400713%" id="linearGradient-3">
            <stop stop-color="#F8F5A7" offset="0%"></stop>
            <stop stop-color="#FF8732" offset="100%"></stop>
            <stop stop-color="#80BF1B" offset="100%"></stop>
        </linearGradient>
    </defs>
    <g id="Page-1" stroke="none" stroke-width="1" fill="none" fill-rule="evenodd">
        <g id="Basha" transform="translate(-126.000000, -877.000000)">
            <g id="Process" transform="translate(29.000000, 852.000000)">
                <g id="noun-interpreter-3154938" transform="translate(97.000000, 25.000000)">
                    <path d="M96.774206,22.5806785 L90.3225812,22.5806785 L90.3225812,3.22581121 C90.3225812,1.44658278 88.8759979,0 87.0967688,0 L58.0644573,0 C56.2852282,0 54.8386449,1.44658278 54.8386449,3.22581121 L54.8386449,10.7985413 C51.6257357,6.22765895 46.3226845,3.22581121 40.3224891,3.22581121 L34.5512342,3.22581121 C27.5257835,3.22581121 21.0042968,6.7159546 17.1058564,12.5625992 L12.4623456,19.5268491 C10.639909,22.2593877 9.67727129,25.4383785 9.67727129,28.725388 C9.67727129,31.2866821 10.2821019,33.8514785 11.4269888,36.1397768 L12.47394,38.2350794 C12.7547516,38.795283 12.9030837,39.4209982 12.9030837,40.0467134 C12.9030837,41.5919323 12.0447964,42.9809113 10.6630796,43.6706819 L9.94376026,44.0307009 C7.79002358,45.1064444 6.45158793,47.2723646 6.45158793,49.7435204 C6.45158793,51.2851448 7.03555214,52.7302529 8.07098262,53.8629734 C3.28055904,56.256341 0,61.2146893 0,66.8534073 L0,83.870944 C0,89.2079104 4.34046883,93.5483776 9.67743719,93.5483776 L12.5519125,93.5483776 C12.37262,94.5593284 12.1472482,95.5616524 11.8210725,96.5373221 L10.6646833,100 L50.6242039,100 L49.4692525,96.5373221 C48.751371,94.3808212 48.3870201,92.1341819 48.3870201,89.8609989 C48.3870201,87.1609027 48.8953712,84.5225578 49.8983961,82.0204343 L50.4225999,80.709225 C50.7761489,79.8250025 51.0389697,78.9170196 51.2355414,77.9982533 L62.2761148,90.1014969 C64.2713258,92.2919149 67.116308,93.5483223 70.0807375,93.5483223 C75.9052643,93.5483223 80.6451809,88.8096978 80.6451809,82.9838827 L80.6451809,58.0640303 C80.6451809,56.8831622 80.3031526,55.7915846 79.7487184,54.8382191 L84.4873447,54.8382191 L86.7181322,59.2981335 C87.3323269,60.5250846 88.5679052,61.2898415 89.9417326,61.2898415 C91.930492,61.2898415 93.5483752,59.6719037 93.5483752,57.6832003 L93.5483752,54.8382191 L96.7741876,54.8382191 C98.5534167,54.8382191 100,53.3916363 100,51.6124079 L100,25.8059182 C100,24.0266898 98.5534167,22.580107 96.7741876,22.580107 L96.774206,22.5806785 Z M58.0644573,3.22581121 L87.0967688,3.22581121 L87.0967688,25.8064897 L68.3575638,25.8064897 L65.2382954,32.0470519 C65.0770048,32.3667574 64.5139254,32.2328217 64.5153632,31.8792802 L64.5153632,25.8064602 L58.0637384,25.8064602 L58.0644573,3.22581121 Z M66.1289883,65.1835063 L67.7418945,66.7964119 L67.7418945,73.7046248 L57.4480506,58.2625744 L58.70597,57.423716 C60.3239084,56.3465163 61.2903065,54.5356012 61.2903065,52.5245383 C61.2903065,50.3536595 60.0820647,48.3986336 58.1373053,47.4259133 L56.8520126,46.7836266 C55.6113652,46.1629437 54.838737,44.9143151 54.838737,43.5261103 C54.838737,42.805335 55.0497052,42.1069008 55.4500561,41.5071211 C57.1594418,38.9401127 58.0646232,35.9548549 58.0646232,32.8722697 L58.0646232,29.032264 L61.2904356,29.032264 L61.2904356,31.8772452 C61.2904356,33.7349438 62.7082078,35.2514437 64.516248,35.4449924 L64.516248,51.6129425 C64.516248,53.3921709 65.9628313,54.8387537 67.7420604,54.8387537 L68.6226703,54.8387537 C68.2936005,55.4047084 68.0358305,56.0196218 67.8918302,56.677761 C65.9369879,57.2984439 64.5163401,59.1323268 64.5163401,61.2903024 C64.5163401,62.7613644 65.0887836,64.1452374 66.1292463,65.18358 L66.1289883,65.1835063 Z M10.5270424,51.7949151 C9.9790783,51.2469511 9.67738189,50.5175492 9.67738189,49.6822852 C9.67738189,48.5035738 10.3319084,47.4435723 11.3867675,46.9180415 L12.1060868,46.5580226 C14.5873817,45.3159378 16.1289514,42.8210585 16.1289514,40.0466766 C16.1289514,38.9226749 15.8625362,37.796535 15.3599361,36.7921096 L14.3129849,34.6968069 C13.3898864,32.8534862 12.903139,30.7884141 12.903139,28.7253695 C12.903139,26.0785454 13.6771865,23.5172513 15.1468298,21.318907 L19.7903406,14.3524451 C23.0867522,9.40423507 28.6043661,6.45141965 34.5512895,6.45141965 L40.3225444,6.45141965 C48.3273518,6.45141965 54.8387002,12.9642403 54.8387002,20.9675701 L54.8387002,32.8721038 C54.8387002,35.3159783 54.1222564,37.6820648 52.7664383,39.7176438 C52.0111005,40.8495533 51.6129246,42.165758 51.6129246,43.5259444 C51.6129246,46.1440127 53.065978,48.4986706 55.409798,49.6693636 L56.6950907,50.3116502 C57.5404194,50.7336048 58.0646232,51.5818088 58.0646232,52.581884 C58.0646232,53.4545857 57.6340417,54.2624763 56.9161418,54.7413342 L55.4018901,55.7508472 C53.6147348,54.0832134 51.3242789,53.0269722 48.8343204,52.7784926 L38.7096935,51.766104 L38.7096935,48.3869285 C43.7003018,48.3869285 47.8197563,44.5900565 48.3338587,39.7334595 L51.6129431,38.093199 L51.6129431,37.096663 C51.6129431,31.9598812 49.7905065,26.8979383 48.3194808,23.6367353 C50.2822494,22.5141899 51.6129431,20.4188504 51.6129431,18.0254828 C51.6129431,15.2302713 49.8322578,12.7591156 47.1803082,11.875612 L45.6703699,11.3722933 L44.6493358,14.431837 L46.1607118,14.9351557 C47.4913686,15.3786955 48.386338,16.6193425 48.386338,18.0241925 C48.386338,19.7321397 47.0528056,21.1600496 45.3478071,21.2745199 L30.4399455,22.2696181 C26.9346856,22.5036277 24.0076756,24.9503594 23.1508998,28.3597653 L22.9399317,29.2079878 C20.9028772,29.7789932 19.405916,31.6518623 19.405916,33.8673495 C19.405916,35.3398493 19.9783594,36.7222846 21.0188222,37.7606271 L22.6288528,39.3720949 L22.585649,51.7201316 L13.4805631,52.3717823 C12.7770779,52.4214653 12.0937587,52.5381125 11.4212045,52.6864371 L10.5270424,51.7949151 Z M45.1612077,66.1289454 C45.1612077,67.0189191 44.4382755,67.741851 43.5483015,67.741851 C41.4126293,67.741851 39.3835012,67.0707717 37.6835902,65.846733 C38.3179508,65.0287595 38.7096566,64.0163709 38.7096566,62.9031342 C38.7096566,61.7898976 38.3179508,60.7776011 37.6835902,59.9595354 C39.3836302,58.7354599 41.4126293,58.0644174 43.5483015,58.0644174 C44.4382755,58.0644174 45.1612077,58.7873494 45.1612077,59.677323 L45.1612077,66.1289454 Z M29.0321457,90.3225295 L29.0321457,82.9254679 L30.6450519,81.3125623 C31.0770895,80.881981 31.6480768,80.6450774 32.2579581,80.6450774 C33.1479321,80.6450774 33.8708643,81.3680094 33.8708643,82.2579831 L33.8708643,83.8708887 L35.4837705,83.8708887 C37.2629996,83.8708887 38.7095829,85.3174714 38.7095829,87.0966999 C38.7095829,88.8759283 37.2629996,90.3225295 35.4837705,90.3225295 L29.0321457,90.3225295 Z M45.1805625,24.5196675 C46.4615234,27.271008 48.1385403,31.6516596 48.3632412,36.113233 L45.1612077,37.7138989 L45.1612077,38.710435 C45.1612077,39.2699197 45.067602,39.8041877 44.9322303,40.3233406 L42.3163729,40.3233406 C40.7063423,40.3233406 39.2583028,39.4283162 38.5390388,37.9896966 L35.6538722,39.4333853 C36.9261879,41.9716379 39.478764,43.5491518 42.3165573,43.5491518 L42.9307519,43.5491518 C41.7966853,44.5413744 40.3307472,45.1620574 38.70844,45.1620574 L32.2568152,45.1620574 L32.2568152,48.3878686 L35.4826276,48.3878686 L35.4826276,53.0313777 L34.2146253,58.1005096 C34.1001384,58.0911491 33.9892424,58.0652266 33.8711592,58.0652266 C33.557942,58.0652266 33.2547894,58.1005096 32.9595815,58.1573927 C31.1140481,56.5315285 28.8963482,55.4672505 26.5029797,55.0497383 L25.8095775,52.9673389 L25.8628606,38.045105 L23.3002752,35.4845482 C22.8682375,35.0539669 22.6327901,34.4815237 22.6327901,33.8716426 C22.6327901,32.9831067 23.3557223,32.258737 24.2456963,32.258737 L25.5050535,32.258737 L26.2805388,29.1459213 C26.7932033,27.0989137 28.550036,25.6314461 30.6534501,25.4895104 L45.1805625,24.5196675 Z M35.4837705,62.9031342 C35.4837705,63.7931079 34.7608383,64.5160398 33.8708643,64.5160398 C32.9808903,64.5160398 32.2579581,63.7931079 32.2579581,62.9031342 C32.2579581,62.0131606 32.9808903,61.2902286 33.8708643,61.2902286 C34.7608383,61.2902286 35.4837705,62.0131606 35.4837705,62.9031342 Z M24.1934271,58.0644174 C26.3082697,58.0644174 28.3193333,58.7211004 30.0516867,59.965987 C29.4223584,60.7839606 29.0321088,61.7934736 29.0321088,62.9031342 C29.0321088,64.016334 29.4238146,65.0286673 30.0581752,65.846733 C28.3581352,67.0708086 26.3291361,67.741851 24.193464,67.741851 C23.30349,67.741851 22.5805578,67.0189191 22.5805578,66.1289454 L22.5805578,59.677323 C22.5805578,58.7873494 23.30349,58.0644174 24.193464,58.0644174 L24.1934271,58.0644174 Z M38.0550195,56.0432163 L38.3228725,54.9703483 L40.5484987,55.1928372 C39.6902114,55.3901278 38.856385,55.6759899 38.0550195,56.0432163 L38.0550195,56.0432163 Z M3.22546217,83.8699854 L3.22546217,66.8524488 C3.22546217,60.9575092 7.83007895,56.0107738 13.7108271,55.5908654 L23.0592314,54.9233805 L23.078673,54.9795447 C20.9479778,55.485739 19.3546108,57.3939261 19.3546108,59.6763258 L19.3546108,66.1279482 C19.3546108,68.7957862 21.5254904,70.966665 24.1933294,70.966665 C27.1498325,70.966665 29.9514967,69.9960461 32.2578604,68.2262001 L32.2578604,77.4182874 C30.7867978,77.4182874 29.4029242,77.9907307 28.3645813,79.031193 L26.7516751,80.6440986 L14.3171822,80.6440986 L13.862103,79.5121891 C13.2255857,77.9165739 12.9030044,76.2373456 12.9030044,74.520108 C12.9030044,72.4441603 13.3948026,70.3654475 14.3207766,68.5105139 L15.1077827,66.9350462 C15.7752678,65.6022331 16.1288168,64.1066549 16.1288168,62.6104315 L16.1288168,61.2891392 L12.9030044,61.2891392 L12.9030044,62.6104315 C12.9030044,63.6069675 12.667557,64.6041672 12.2204041,65.495597 L11.4362736,67.0652952 C10.2849167,69.3679714 9.67719203,71.9436434 9.67719203,74.5198684 C9.67719203,76.624572 10.0724923,78.6839299 10.845102,80.6439327 L6.4513612,80.6439327 L6.4513612,83.869744 L25.8062356,83.869744 L25.8062356,90.3213664 L9.6771736,90.3213664 C6.11937902,90.3213664 3.22546217,87.4275372 3.22546217,83.869744 L3.22546217,83.8699854 Z M15.8205084,93.5474191 L32.2577737,93.5474191 L32.2577737,96.7732303 L15.1270509,96.7732303 C15.4381114,95.7169153 15.6526924,94.6360843 15.8204531,93.5474191 L15.8205084,93.5474191 Z M47.4260966,79.5101633 L46.9018929,80.8199348 C45.7469415,83.7058377 45.1615395,86.7473169 45.1615395,89.8601325 C45.1615395,92.2053894 45.498517,94.5281578 46.1631266,96.7733224 L35.4839548,96.7733224 L35.4839548,93.5475112 C39.0418231,93.5475112 41.9356533,90.6536821 41.9356533,87.0958888 C41.9356533,84.0155156 39.7632991,81.4298897 36.8707592,80.793944 C36.6065007,79.9651686 36.1161403,79.2422367 35.4839548,78.6726506 L35.4839548,68.2261836 C37.7903185,69.9960664 40.5919827,70.9666484 43.5484858,70.9666484 C45.0483411,70.9666484 46.3724541,70.266758 47.2611194,69.1924523 C47.9854894,70.8716068 48.3872781,72.6925496 48.3872781,74.5200177 C48.3872781,76.237329 48.0646969,77.9165204 47.4260229,79.5098868 L47.4260966,79.5101633 Z M70.0805163,90.3216078 C68.0211576,90.3216078 66.0453015,89.4489061 64.6593081,87.9282403 L51.5558738,73.5639794 C51.4233851,71.3123632 50.8610338,69.0830512 49.8508016,67.064062 L49.0666711,65.4943639 C48.6223938,64.6051091 48.3869463,63.6086468 48.3869463,62.6104886 L48.3869463,59.6762908 C48.3869463,58.0698737 47.592014,56.6549038 46.3852837,55.7743495 L48.5145042,55.9874743 C50.9244625,56.2279723 53.0774619,57.5226102 54.4225335,59.5373413 L67.7420051,79.5207809 L67.7420051,83.870649 L70.9678175,83.870649 L70.9678175,67.741593 L77.4194422,67.741593 L77.4194422,82.9836431 C77.4194422,87.030285 74.1274546,90.3222714 70.0808112,90.3222714 L70.0805163,90.3216078 Z M77.4191473,58.0634958 L77.4191473,64.5151182 L70.022083,64.5151182 L68.4091768,62.9022126 C67.9785954,62.4701751 67.7416917,61.8991881 67.7416917,61.289307 C67.7416917,60.3993333 68.4646239,59.6764014 69.3545979,59.6764014 L70.9675041,59.6764014 L70.9675041,58.0634958 C70.9675041,56.2842673 72.4140874,54.8376846 74.1933165,54.8376846 C75.9725456,54.8376846 77.4191473,56.2842673 77.4191473,58.0634958 L77.4191473,58.0634958 Z M96.7740217,51.6118733 L90.3223969,51.6118733 L90.3223969,57.6826657 C90.3223969,58.0390902 89.7578797,58.169413 89.6016214,57.851877 L86.480141,51.6118678 L67.7409359,51.6118678 L67.7409359,34.0441 C67.8763058,33.8669679 68.018153,33.6956018 68.1218399,33.4911038 L70.3504154,29.0311894 L80.6442593,29.0311894 L80.6442593,32.2570006 L74.1926345,32.2570006 L74.1926345,35.4828118 L77.4184469,35.4828118 L77.4184469,37.5666858 C77.4184469,40.160238 78.2990568,42.5860481 79.8313545,44.5331477 C79.6909451,44.613793 79.5606075,44.705959 79.4137316,44.7801158 L75.0848757,46.944543 L76.528565,49.8297085 L80.8574209,47.6652813 C81.3492191,47.4183132 81.8172384,47.13964 82.259359,46.8329115 C82.7014612,47.1396585 83.16878,47.419751 83.6612971,47.6652813 L87.990153,49.8297085 L89.4338423,46.944543 L85.1049864,44.7801158 C84.9580958,44.7073913 84.8277693,44.6137856 84.6873635,44.5331477 C86.215311,42.5862324 87.0958472,40.160238 87.0958472,37.5666858 L87.0958472,35.4828118 L90.3216596,35.4828118 L90.3216596,32.2570006 L83.8700348,32.2570006 L83.8700348,29.0311894 L87.0958472,29.0311894 C88.8750763,29.0311894 90.3216596,27.5846066 90.3216596,25.8053781 L96.7732844,25.8053781 L96.7740217,51.6118733 Z M82.2578659,42.3895556 C81.235394,41.0250743 80.6449597,39.3523161 80.6449597,37.5666913 L80.6449597,35.4828173 L83.8707721,35.4828173 L83.8707721,37.5666913 C83.8707721,39.3524083 83.2803378,41.0251296 82.2578659,42.3895556 Z" id="Shape" fill="url(#linearGradient-1)" fill-rule="nonzero"></path>
                    <path d="M69.9346405,20.1960784 L73.2026144,20.1960784 L73.2026144,23.5294118 L76.4705882,23.5294118 L76.4705882,11.8627451 C76.4705882,9.10598319 74.2713352,6.8627451 71.5686275,6.8627451 C68.8659197,6.8627451 66.6666667,9.10598319 66.6666667,11.8627451 L66.6666667,23.5294118 L69.9346405,23.5294118 L69.9346405,20.1960784 Z M71.5686275,10.1960784 C72.4702334,10.1960784 73.2026144,10.9445927 73.2026144,11.8627451 L73.2026144,16.8627451 L69.9346405,16.8627451 L69.9346405,11.8627451 C69.9346405,10.9445927 70.6670215,10.1960784 71.5686275,10.1960784 Z" id="Shape" fill="url(#linearGradient-2)" fill-rule="nonzero"></path>
                    <path d="M40.1960784,34.3137255 C42.8987862,34.3137255 45.0980392,32.1144725 45.0980392,29.4117647 L41.8300654,29.4117647 C41.8300654,30.3119141 41.0976844,31.0457516 40.1960784,31.0457516 C39.2944725,31.0457516 38.5620915,30.3119141 38.5620915,29.4117647 L35.2941176,29.4117647 C35.2941176,32.1144725 37.4933707,34.3137255 40.1960784,34.3137255 Z" id="Path" fill="url(#linearGradient-3)"></path>
                </g>
            </g>
        </g>
    </g>
</svg>